<?xml version="1.0" standalone="no"?>
<!DOCTYPE svg PUBLIC "-//W3C//DTD SVG 20010904//EN"
 "http://www.w3.org/TR/2001/REC-SVG-20010904/DTD/svg10.dtd">
<svg version="1.0" xmlns="http://www.w3.org/2000/svg"
 width="420.000000pt" height="420.000000pt" viewBox="0 0 420.000000 420.000000"
 preserveAspectRatio="xMidYMid meet">
<metadata>
Created by potrace 1.14, written by Peter Selinger 2001-2017
</metadata>
<g transform="translate(0.000000,420.000000) scale(0.100000,-0.100000)"
fill="#000000" stroke="none">
<path d="M480 3205 l0 -115 -115 0 -115 0 0 -115 0 -115 -115 0 -115 0 0 -350
0 -350 115 0 115 0 0 -345 0 -345 115 0 115 0 0 -115 0 -115 115 0 115 0 0
-115 0 -115 230 0 230 0 0 -115 0 -115 1155 0 1155 0 0 115 0 115 115 0 115 0
0 115 0 115 115 0 115 0 0 115 0 115 115 0 115 0 0 345 0 345 -115 0 -115 0 0
120 0 120 115 0 115 0 0 230 0 230 -115 0 -115 0 0 115 0 115 -115 0 -115 0 0
115 0 115 -230 0 -230 0 0 -115 0 -115 -120 0 -120 0 0 115 0 115 -920 0 -920
0 0 -115 0 -115 -115 0 -115 0 0 115 0 115 -230 0 -230 0 0 -115z"/>
<path d="M658 293 c23 -2 61 -2 85 0 23 2 4 4 -43 4 -47 0 -66 -2 -42 -4z"/>
</g>
</svg>
