<svg xmlns="http://www.w3.org/2000/svg" viewBox="0 0 279.61 238.74"><g data-name="Слой 2"><g data-name="Layer 1"><path d="M270.19 157.84c-4 8.2-9.69 13.33-19.63 13.09s-31.56-29.34-44.31-29.69-15.9 8.69-31.69 12-24.61.69-32.87-.81-12.34-3.11-22.68-5.76-21.08-1.55-36.33-1.55S43 155 36.09 160.94s-16.72 8.24-19.8 6.62-3.77-5.7-3.77-5.7-1.68-13.32-3.72-18 2.42-17.57 8.88-25.89 14.24-11.4 16.2-25.35-.61-26 10.89-34.54 12.65-9.8 13.82-17.27 3.61-30.69 26-35.87 33.55-3.68 54.09-4.86 28.2 10.63 40.69 16.77 25-1.24 33.85-.87 9.47 6.37 16.33 7.87 22.77-.14 30.31 11.41 8.38 23.23 10.33 28.27 8.17 10.88 9.19 14.54-1.33 14.64-8.69 23.64-6.76 16.65-2.24 28.74 3.79 23.2 1.74 27.39Z" style="fill:#bcc39a"/><path d="M243.51 172.56h-.68c-4.89-.12-12.2-6.66-20-13.59-8.34-7.46-17.79-15.92-24.37-16.1s-10.62 2.25-15.25 5.06c-4.13 2.52-8.82 5.37-16.3 7-14 3-22.47 1.27-30-.21l-3.1-.6a130.51 130.51 0 0 1-13.53-3.27c-2.57-.72-5.49-1.54-9.2-2.49-7.79-2-15.79-1.85-25.93-1.66a539 539 0 0 1-10.24.12c-14.88 0-39.32 9.75-46.21 15.64S11.82 171 8.3 169.11c-3.31-1.73-4.06-6-4.09-6.13S2.52 149.67.53 145.12c-2.11-4.83 2.33-18 9-26.5 6.44-8.31 7.6-11.36 9.54-25.12 1.69-12 5.12-25.58 17.67-34.88 11.56-8.57 12.45-9.68 13.58-16.89 1.47-9.38 9.91-28.43 31.36-33.4 13.07-3 20.3-1.74 28-.37a76.94 76.94 0 0 0 20 1.54C149.8 8.33 159 11 171.92 17.33c8.07 4 16.19 2.15 23.36.55 3.69-.83 7.19-1.61 10.25-1.48 5.17.22 7.65 2.3 10.05 4.31a14 14 0 0 0 6.42 3.57 50.08 50.08 0 0 0 5.62.71c8 .73 19 1.73 25.06 11 5.46 8.34 7.41 16.63 8.84 22.69a46.57 46.57 0 0 0 1.56 5.7c1 2.48 3 5.17 4.95 7.76s3.71 4.92 4.25 6.83c.64 2.29 3.42 14.23-4.72 24.19-7.34 9-6.48 16.51-2.14 28.14 3.18 8.53 2.36 18.17-2.37 27.86-4.5 9.11-10.71 13.4-19.54 13.4Zm-45.71-30.91h.75c7 .19 16.22 8.43 25.13 16.4 7.58 6.78 14.73 13.18 19.17 13.29 8.79.17 14.68-3.72 19.09-12.76 4.58-9.39 5.38-18.69 2.31-26.91-4.4-11.79-5.33-20 2.34-29.32 7.93-9.71 4.87-21.76 4.49-23.11-.47-1.69-2.21-4-4.05-6.43-2-2.66-4.09-5.41-5.11-8a47 47 0 0 1-1.61-5.86c-1.41-6-3.33-14.14-8.67-22.3-5.72-8.75-16.38-9.72-24.17-10.43a49.62 49.62 0 0 1-5.77-.72 15.35 15.35 0 0 1-6.9-3.83c-2.34-2-4.56-3.83-9.32-4-2.9-.12-6.32.64-9.94 1.45-7.36 1.65-15.7 3.51-24.15-.64-12.74-6.26-21.79-8.85-41.76-7.71a78.32 78.32 0 0 1-20.24-1.56c-7.53-1.34-14.65-2.61-27.48.36-20.82 4.83-29 23.32-30.45 32.42-1.23 7.89-2.73 9.27-14.05 17.66-12.19 9-15.53 22.3-17.19 34.09-2 13.89-3.24 17.25-9.78 25.69-6.3 8.1-10.74 20.86-8.81 25.28 2.06 4.71 3.7 17.62 3.77 18.17 0 0 .68 3.78 3.45 5.24s12.27-.68 19.13-6.55c7.18-6.15 31.6-15.93 47-15.93 3.64 0 7-.06 10.22-.12 10.22-.19 18.3-.34 26.25 1.69 3.72 1 6.64 1.78 9.22 2.5a130.86 130.86 0 0 0 13.42 3.25l3.12.6c7.41 1.46 15.8 3.11 29.52.21 7.28-1.54 11.87-4.34 15.92-6.8 4.6-2.88 8.61-5.32 15.15-5.32Z"/><path d="M144.79 143.45c1.49 2.46 4.83 8 9.31 9.16s4.69-.93 8.35-1.66 13.54.25 13.54.25a36.79 36.79 0 0 1 4.13 6.5c1.26 2.9 8.44 2.48 14.38.42s5.11-3.87 7.85-3.89 5.28.77 8.59 0 6.84-6.34 10.9-7.6 1-.44 4.6-4.37 7-11.93 8.29-14.16 3.84-2.88 4.55-5.92 1.94-4.28 1.88-8.65-12.88-16-14.72-20.42-.55-6.49 0-9.87-1.69-4-1.69-4a9.62 9.62 0 0 0 1.69-2.49c.63-1.4 2.85-2.85 3.31-6.4s-.48-4.62-3.31-4.43a8.74 8.74 0 0 0-5 2.3 15.57 15.57 0 0 0-3.72-6.71c-2.72-2.59-3.59-8.38-10.07-12.51s-32.32.79-32.32.79-.57-1.25-3.82-4-8.08-2.07-10.79 0 1.75 9.55 2.5 11-.06 4.86-2.5 6.59-7.23 2.34-13.93 6.46-13.22 13.08-14.24 18.1 8.37 4.09 9.2 6.87-.47 6.83-2.23 9.07-3.82 1.44-2.74 4.55 3.89 13.08 7.11 18.39a9.93 9.93 0 0 1 .25 8.24 9.57 9.57 0 0 0 .65 8.39Z" style="fill:#c3883c"/><path d="M133.82 144.06c-1.48 2.92-4.63 2.56-6.33 6.88s-6.79 8.4-6.79 8.4-6.79 10-8.75 13.11-1.18 1.84-8.09 3.78-10.51 2.07-13.6-1.48-3.75-4.94-1.43-8 5.75-4.85 6.67-7.79a14.09 14.09 0 0 1 2.65-4.85c-.87 0-4.34-1-6.5-1.39a20.44 20.44 0 0 0-5.92.55l-5.65-2.15s-6.21 6.12-10.46 5.22-5.79.76-7.8.71-4.42-1.81-5.46-1.66-3.36 2.79-3.49 1.61-9.74 1.68-11.49.41-11.58-15.08-10.68-19.26 7.73-14.86 8-19.78-2.85-7.76-1.82-13.27 2-17.81 8.7-20.18 8.57-4.19 11.89-9 4.25-6 10.74-7.5 9.16-3.8 13.08-6.78 5.2-8.16 9.59-7.93 7.5 1 13.16 1.25a32.69 32.69 0 0 1 17.84 6.63c5.56 4.19 9 7.14 8.54 14.33s1.83 14.88 5.59 14 9.34-.84 9.23 1.46 2.05 3.4 1.76 4.58-2.38 7.88-2.38 7.88l-4.34.48s7.74 6.59 7.22 14.11-.41 16.28-6 20.4-7.15 4.17-7.68 5.23Z" style="fill:#e49d55"/><path d="M97.4 149.85c0-.13-.82-1.7.41-2.07s1.43.74 2 0a4.28 4.28 0 0 0 .78-1.77c0-.14-.25-1.27.69-1.36a3.2 3.2 0 0 1 2.62.46c1.28.73 2 1.15 2.24 1.83a2.37 2.37 0 0 1 0 1.7c-.14.32-1.83-1.83-2.75-1.83s-.09.3-.83.7-1.33.17-1.1.86 1 1.51 0 2-1.1.18-2.2.27-1.7-.32-1.86-.79ZM40.49 153.11a.61.61 0 0 1-.42-.17.62.62 0 0 1 0-.84c.05-.06.66-1.08-1.49-3.9-1.77-2.31-7.27-10.39-4-17.32a45.94 45.94 0 0 0 3.12-10.33 31.26 31.26 0 0 1 1.26-4.86c1.29-3.21 1.34-5.66.17-7.31a.49.49 0 0 1-.1-.22 13.86 13.86 0 0 1 1.62-9c2.51-4.55 3-5.84 3.32-9.21.31-3.05 2.88-4.58 5.15-5.93.67-.41 1.31-.79 1.88-1.2a53.76 53.76 0 0 0 5.87-5.66 100.8 100.8 0 0 1 4.35-4.38 19.06 19.06 0 0 1 6-3.48 36.11 36.11 0 0 0 3.91-1.83 73.68 73.68 0 0 0 8.52-6.3 88.73 88.73 0 0 1 4.78-3.69c2.21-1.67 4.71-3.57 9.09-3.57a9.15 9.15 0 0 1 4.94 1.21 7.39 7.39 0 0 0 4.22 1c8.22-.15 13.44.57 15.94 2.21s8.29 5.92 9.34 10.93c.25 1.2.42 2.74.6 4.36.47 4.3 1.06 9.66 3.46 11.32a31.34 31.34 0 0 0 2.75 1.71 28.33 28.33 0 0 0 5.7 2.33 10.27 10.27 0 0 1 4.29 2.54c.73.73.79 3.11-.79 6.64-1.38 3.06-1.8 4-2.52 4.24a1.2 1.2 0 0 1-1-.1l-3.11-1.56.54-1.08 3.12 1.56a20.11 20.11 0 0 0 1.8-3.58c1.53-3.39 1.19-5.07 1-5.3a9 9 0 0 0-3.77-2.22 29.27 29.27 0 0 1-5.93-2.43 31.53 31.53 0 0 1-2.86-1.78c-2.85-2-3.45-7.39-4-12.18-.17-1.59-.34-3.1-.58-4.24-1-4.57-6.48-8.63-8.82-10.17s-7.39-2.16-15.24-2a8.5 8.5 0 0 1-4.81-1.13 8 8 0 0 0-4.38-1.07c-4 0-6.2 1.69-8.36 3.32-.41.31-.8.61-1.19.88-.84.6-2.1 1.61-3.56 2.79a75.75 75.75 0 0 1-8.69 6.42 37.25 37.25 0 0 1-4 1.89A17.55 17.55 0 0 0 62 73.63a83.91 83.91 0 0 0-4.29 4.32 55.84 55.84 0 0 1-6 5.81c-.62.44-1.31.85-2 1.25-2.22 1.32-4.32 2.57-4.57 5-.38 3.76-1 5.28-3.46 9.68a12.91 12.91 0 0 0-1.52 8.09c1.35 2 1.32 4.8-.1 8.35a30.54 30.54 0 0 0-1.21 4.66 46.52 46.52 0 0 1-3.21 10.6c-3 6.31 2.22 13.89 3.88 16.06 2.9 3.8 1.57 5.32 1.41 5.48a.63.63 0 0 1-.44.18Z"/><path d="M132.48 112.39H128a.61.61 0 1 1 0-1.21h4.49c2.06 0 2.06 0 2.73-1.59l.11-.24c.83-1.93 2-4.45 3.49-7.63s2.39-5 2.39-5a.6.6 0 1 1 1.09.52s-.92 1.93-2.38 5-2.66 5.68-3.48 7.6l-.1.24c-.85 1.92-1.21 2.31-3.86 2.31Z"/><path d="M110.56 117.9c-4.56 0-4.73-2.58-4.73-2.69a.6.6 0 0 1 .58-.63.61.61 0 0 1 .63.56c0 .09.22 1.55 3.52 1.55 2.94 0 3.2-.21 4.31-1.06.34-.26.75-.58 1.32-.95s1-.7 1.31-1c1.39-1.11 2.06-1.52 4.75-.45a20.14 20.14 0 0 1 2.27 1.11c1.68.91 2.6 1.42 4.66.37 2.57-1.31 2-2.6 1.94-2.65a.61.61 0 0 1 1.07-.57 2.36 2.36 0 0 1 .11 1.74 4.72 4.72 0 0 1-2.57 2.56c-2.63 1.33-4 .58-5.79-.39a18.71 18.71 0 0 0-2.14-1c-2.14-.86-2.41-.64-3.54.27-.36.29-.81.65-1.4 1s-.91.64-1.25.9c-1.32 1.03-1.84 1.33-5.05 1.33ZM77.21 108.27c-.62 0-1.17-.62-1.48-1.2a2.93 2.93 0 0 1 .06-3 7.6 7.6 0 0 1 1.09-1.26 3.25 3.25 0 0 0 1.2-2.22 1.51 1.51 0 0 0-.22-1.15 1.64 1.64 0 0 0-1-.54.61.61 0 0 1 .14-1.26 2.85 2.85 0 0 1 1.78 1 2.69 2.69 0 0 1 .46 2.07 4.44 4.44 0 0 1-1.55 2.9 6.42 6.42 0 0 0-.93 1.08 1.62 1.62 0 0 0-.17 1.42 1.89 1.89 0 0 0 .63.94.6.6 0 0 1 .56.6.61.61 0 0 1-.57.62Zm0-1.21ZM80.86 109.4a2.19 2.19 0 0 1-2.28-1.59c-.39-1.48 1-2.36 1.6-2.74l.15-.1a.63.63 0 0 1 .49-.24.6.6 0 0 1 .6.61c0 .38-.27.55-.59.75-.6.38-1.23.84-1.08 1.42.22.83 1.27.67 1.39.66a.6.6 0 1 1 .21 1.19 3.47 3.47 0 0 1-.49.04Zm-.65-4.06ZM88.46 115.66a.58.58 0 0 1-.31-.08s-2-1.17-3.66-2.14a1.62 1.62 0 0 1-1-1.74 2.54 2.54 0 0 1 1.69-1.76.6.6 0 0 1 .24 1.18c-.21.09-.72.51-.74.82s.25.36.41.45l3.68 2.15a.6.6 0 0 1 .21.83.59.59 0 0 1-.52.29Zm-3.06-4.53ZM101.48 120a.61.61 0 0 1-.57-.41 5.7 5.7 0 0 0-2.54-2.43c-1.92-1.11-3.07-.09-3.08-.07a.62.62 0 0 1-.76.05 16.2 16.2 0 0 1-3.06-3.06 102.16 102.16 0 0 0-2.56-3.16.61.61 0 1 1 .93-.79s1.06 1.26 2.58 3.2a15.61 15.61 0 0 0 2.48 2.56 3.9 3.9 0 0 1 4.07.23 6.63 6.63 0 0 1 3.08 3.07.6.6 0 0 1-.37.77.65.65 0 0 1-.2.04Z"/><path d="M100.33 118.47a.61.61 0 0 1-.55-.36c-1-2.21-4.29-4.49-4.33-4.51a.61.61 0 0 1-.15-.84.6.6 0 0 1 .84-.16c.15.1 3.59 2.49 4.74 5a.61.61 0 0 1-.3.8.57.57 0 0 1-.25.07ZM102 130.46a.61.61 0 0 1-.5-.26l-.06-.09a9.14 9.14 0 0 0-6.91-4.06c-4.83-.59-12.94.18-15.31.43a18.78 18.78 0 0 1-4.08-.16 32.23 32.23 0 0 0-3.71-.26 12.5 12.5 0 0 0-4.7.8.6.6 0 0 1-.8-.3.6.6 0 0 1 .3-.8 13.49 13.49 0 0 1 5.2-.91 33.18 33.18 0 0 1 3.84.27 18 18 0 0 0 3.82.16c2.4-.26 10.63-1 15.59-.43a10.31 10.31 0 0 1 7.76 4.58l.06.08a.61.61 0 0 1-.15.84.58.58 0 0 1-.35.11Z"/><path d="M102.83 142.28h-.15a.62.62 0 0 1-.44-.75 3.89 3.89 0 0 1 .32-.71 27.63 27.63 0 0 0 1.41-3.31l.66-1.93a35.74 35.74 0 0 0 1.21-3.81c.21-1 .18-1.51-1-2.3-.93-.65-2.73-.17-3.35.06a.61.61 0 0 1-.44-1.13c.12 0 2.82-1.07 4.48.07A2.94 2.94 0 0 1 107 132a36.29 36.29 0 0 1-1.26 4l-.66 1.91a27.46 27.46 0 0 1-1.47 3.47l-.23.49a.61.61 0 0 1-.55.41ZM56.85 154.29a2.83 2.83 0 0 1-1.17-.28.61.61 0 0 1 .5-1.11c.66.3.93.19 1.83-.15.36-.14.8-.31 1.35-.48a5.64 5.64 0 0 1 3.39-.37h.08c.74.15 2 .06 5.07-.34a49.3 49.3 0 0 0 7.86-2.36c2.24-.79 4.36-1.54 6-2 2.43-.61 3-.52 3.6.52a2.36 2.36 0 0 0 1 1 3 3 0 0 0 .7.36 1 1 0 0 0 .12-.16 3.37 3.37 0 0 1 2.06-1.43c1.86-.51 2.18-.41 3.15.34a12.2 12.2 0 0 0 1.48 1c1.45.85 2 .73 2 .7a.6.6 0 0 1 1.08.52 1.08 1.08 0 0 1-.68.62c-.71.25-1.71 0-3.06-.8a15 15 0 0 1-1.61-1.09c-.67-.52-.67-.52-2.08-.13a2.13 2.13 0 0 0-1.4 1c-.62.86-1.21.9-2.44.13a3.5 3.5 0 0 1-1.39-1.46c-.17-.31-.23-.43-2.24.08-1.6.4-3.69 1.14-5.9 1.92a49.65 49.65 0 0 1-8.11 2.42c-3.33.43-4.55.51-5.46.33h-.09a4.58 4.58 0 0 0-2.79.34c-.52.16-.92.32-1.27.46a4.45 4.45 0 0 1-1.58.42Zm39-4.59Zm0 0ZM51.68 154a3.77 3.77 0 0 1-.88-.19 16.13 16.13 0 0 0-4.06-.7c-2.72-.09-6.09-.25-6.12-.25a.61.61 0 0 1 .05-1.21s3.4.16 6.11.25a17.52 17.52 0 0 1 4.35.75l.55.14a.6.6 0 0 1 .63.49.62.62 0 0 1-.48.71Z"/><path d="M49.59 153.48a.61.61 0 0 1-.54-.34c-1.64-3.45-3.64-3-3.66-2.95a.61.61 0 0 1-.74-.43.6.6 0 0 1 .43-.74c.12 0 3-.75 5.06 3.6a.59.59 0 0 1-.29.8.58.58 0 0 1-.26.06ZM91.7 73.78a.6.6 0 0 1-.6-.52c0-.08-.52-.89-3.77-.7-3.54.2-5.6-.28-6.48-1.5a3.08 3.08 0 0 1-.11-3.06c1.44-3.61 5.33-5.65 8.5-6.36a23.86 23.86 0 0 0 4.66-1.47c.24-.1.41-.18.54-.22a2.63 2.63 0 0 1 2 .14 1.68 1.68 0 0 1 .83 1.08.61.61 0 0 1-.44.73.59.59 0 0 1-.73-.44.47.47 0 0 0-.24-.31 1.46 1.46 0 0 0-1 0 4.59 4.59 0 0 0-.45.18 25.05 25.05 0 0 1-4.87 1.54c-2.87.64-6.38 2.45-7.64 5.63a2 2 0 0 0 0 1.9c.41.57 1.69 1.21 5.43 1 2.24-.13 3.76.17 4.54.87a1.35 1.35 0 0 1 .5.93.59.59 0 0 1-.57.63Zm-.6-.58Zm0 0Z"/><path d="M89.36 69.68a4.35 4.35 0 0 1-2.68-.92 1.57 1.57 0 0 1-.7-1.44c.1-1 1.24-2 3.79-3.36 2.36-1.21 3.38-1 3.56-1a.59.59 0 0 1 .42.74.61.61 0 0 1-.72.43 5.34 5.34 0 0 0-2.7.86c-2.76 1.42-3.12 2.16-3.14 2.41 0 0 0 .17.24.37a3.23 3.23 0 0 0 2.41.62 1.56 1.56 0 0 0 1-.48 3.51 3.51 0 0 0 .35-.83c.25-.75.58-1.76 1.94-1.88a7.14 7.14 0 0 1 1 0 2.64 2.64 0 0 0 .65 0 .75.75 0 0 0 .06-.22 4.07 4.07 0 0 0-.26-1.86.6.6 0 0 1 1.11-.47 5.19 5.19 0 0 1 .31 2.5c-.23 1.27-1.17 1.27-1.91 1.27a7 7 0 0 0-.9 0c-.51 0-.64.3-.89 1.06a4.72 4.72 0 0 1-.49 1.12 2.6 2.6 0 0 1-1.81 1 3.71 3.71 0 0 1-.64.08ZM120.25 88a24.84 24.84 0 0 1-3.48-1 1.67 1.67 0 0 1-.74-2.82c1-1.22 2.33-1.34 3.92-1.28s2.14-.18 2.93.73.43.55-.3 1.47-.86.73-.86 1.53.92 1.53-1.47 1.37ZM99.83 173.07a3.65 3.65 0 0 1-2-.63l-.19-.11a1.81 1.81 0 0 1-.73-.87 3 3 0 0 0-.87-1.08 6.69 6.69 0 0 0-2.7-1.06c-.47-.11-1-.25-1.62-.42-2.22-.63-2.56-1.14-2.84-2.23a2.77 2.77 0 0 0-.09-.33c-.37-1.27-.27-2 1.07-3.82.66-.91 1.26-1.6 2-2.47s1.62-1.87 2.84-3.42c2.2-2.81 2.32-3.93 2.32-4.12a.6.6 0 0 1 .6-.61.61.61 0 0 1 .61.61c0 1.31-1.4 3.37-2.58 4.86s-2.14 2.63-2.88 3.48a30 30 0 0 0-1.93 2.38c-1.22 1.67-1.13 2-.9 2.77 0 .13.07.25.1.36.17.65.23.87 2 1.37l1.58.42a7.7 7.7 0 0 1 3.15 1.27A4.08 4.08 0 0 1 98 170.9c.12.23.18.33.25.37l.22.13a2.49 2.49 0 0 0 2.31.31 2.4 2.4 0 0 0 1-.52 2.82 2.82 0 0 1 2.15-.61 11.58 11.58 0 0 1 1.58.12 3.22 3.22 0 0 0 2.84-.61l.52-.39a18.9 18.9 0 0 0 4.27-4 17 17 0 0 0 2.15-3.57 13.88 13.88 0 0 1 4-5.45c2.28-1.74 2.43-2.09 2.87-3.12a18.78 18.78 0 0 1 .89-1.83 11.93 11.93 0 0 1 3.56-3.91 11.18 11.18 0 0 0 1.18-1 1.88 1.88 0 0 0 .67-1.11 6.78 6.78 0 0 1 1-2.2 12 12 0 0 1 1.58-2 4 4 0 0 0 1.33-2.34c.08-.45.17-.82.24-1.15.29-1.23.43-1.84-.57-4.2-1.38-3.27-1.7-4.32-1.63-7.1a32.1 32.1 0 0 0-.63-5.49 24.72 24.72 0 0 1-.35-2.48 22.59 22.59 0 0 0-.51-3.3.6.6 0 0 1 .46-.72.59.59 0 0 1 .72.45 23.59 23.59 0 0 1 .54 3.52c0 .48.17 1.34.34 2.32a33.07 33.07 0 0 1 .64 5.73c-.06 2.56.22 3.47 1.54 6.6 1.1 2.6 1 3.48.63 4.94-.08.33-.15.67-.22 1.08a5.27 5.27 0 0 1-1.64 3 11.14 11.14 0 0 0-1.44 1.84 5.85 5.85 0 0 0-.82 1.86 3 3 0 0 1-1 1.68 12.91 12.91 0 0 1-1.3 1.09 10.81 10.81 0 0 0-3.25 3.54 15.87 15.87 0 0 0-.82 1.71c-.54 1.28-.83 1.77-3.25 3.62a12.67 12.67 0 0 0-3.65 5 17.53 17.53 0 0 1-2.31 3.82 19.74 19.74 0 0 1-4.48 4.24l-.51.38a4.37 4.37 0 0 1-3.71.84 11.9 11.9 0 0 0-1.43-.11c-1 0-1.13.13-1.4.35a3.62 3.62 0 0 1-1.42.73 4.49 4.49 0 0 1-1.31.11ZM135.47 143.18a.59.59 0 0 1-.4-.16 2.44 2.44 0 0 1-.68-1.71 5.49 5.49 0 0 1 2-3.76 26 26 0 0 1 2.71-2.3 10.33 10.33 0 0 0 3.71-4.43c1.49-3.12 2.91-7.76 1.24-12.12a74 74 0 0 0-3.12-7l-.93-1.92c-1.39-2.9-2.4-4.88-2.41-4.9a.61.61 0 0 1 1.08-.55s1 2 2.42 4.92l.93 1.91a73.17 73.17 0 0 1 3.16 7.13c1.82 4.76.31 9.74-1.28 13.07a11.46 11.46 0 0 1-4.06 4.87 25.56 25.56 0 0 0-2.6 2.21c-1.35 1.32-1.64 2.27-1.65 2.83a1.3 1.3 0 0 0 .3.89.61.61 0 0 1 0 .85.63.63 0 0 1-.42.17Z"/><path d="M144.62 138.35a.62.62 0 0 1-.38-.14l-3.76-3.15a.61.61 0 0 1 .78-.93l3.75 3.15a.6.6 0 0 1 .08.85.62.62 0 0 1-.47.22Z"/><path d="M155.07 147.35c-2.33 0-4-2.44-6-5.24l-.81-1.14a40.25 40.25 0 0 0-4.79-5.77.57.57 0 0 1-.36-.2.59.59 0 0 1 0-.85.71.71 0 0 1 .52-.16c1.14.12 5.53 6.21 5.58 6.27l.81 1.16c1.85 2.62 3.43 4.89 5.24 4.71a3.25 3.25 0 0 0 1.84-.75 6.54 6.54 0 0 1 3.72-1.33 14.42 14.42 0 0 1 4 .11 8.16 8.16 0 0 0 3.26 0c2.93-.61 4.27-.89 5.75-2a25.61 25.61 0 0 1 5.3-2.59.6.6 0 0 1 .41 1.13 25.49 25.49 0 0 0-5 2.42c-1.7 1.31-3.31 1.65-6.24 2.25a9.55 9.55 0 0 1-3.68.06 13.24 13.24 0 0 0-3.66-.11 5.41 5.41 0 0 0-3.13 1.11 4.31 4.31 0 0 1-2.43 1ZM144 135.05Zm0 0Zm0 0Z"/><path d="M175.67 142.26a.61.61 0 0 1-.6-.59 21.63 21.63 0 0 1 .79-6.13c.85-2.66 4-6 5-7.09l.16-.17a4.11 4.11 0 0 0 .9-1.52.61.61 0 0 1 1.17.32 5.27 5.27 0 0 1-1.18 2l-.16.17c-1 1-4 4.22-4.72 6.63a20.24 20.24 0 0 0-.74 5.73.6.6 0 0 1-.59.62ZM200.57 131.18a2.09 2.09 0 0 1-1.78-1.12l-.15-.21c-.23-.31-.42-.62-.6-.92a8.16 8.16 0 0 0-2-2.34c-1.89-1.57-1.45-4.5-1.19-6.25v-.17a1.62 1.62 0 0 1 .86-1.34 2.3 2.3 0 0 1 1.94.23.61.61 0 0 1-.61 1c-.22-.13-.64-.27-.81-.18s-.17.31-.18.41v.18c-.24 1.6-.6 4 .76 5.14a9.06 9.06 0 0 1 2.22 2.64c.18.29.34.56.54.83l.16.21c.51.71.67.92 2.55.14a9.88 9.88 0 0 0 2.36-1.19.6.6 0 0 1 1.07.53c-.07.21-.21.63-3 1.78a6.19 6.19 0 0 1-2.14.63Zm4-2.74Zm0 0Zm0 0Z"/><path d="M178 145.06c-.89 0-1.94 0-3.17-.15-3.7-.3-4.56 0-4.59 0a.59.59 0 0 1-.78-.31.62.62 0 0 1 .32-.81c.21-.1 1.21-.38 5.15 0a22.77 22.77 0 0 0 6-.09c.32-.34 1.23-1.31 1.61-1.83a18.13 18.13 0 0 1 3.5-2.89 7.45 7.45 0 0 0 1.15-1.05 9.16 9.16 0 0 1 2.12-1.78 13.66 13.66 0 0 1 3.18-1.62l1.07-.42c1.79-.72 1.81-.74 2.69-1.89l.79-1c1-1.26 1.33-1.69 1.43-1.84a.66.66 0 0 1 .21-.29.62.62 0 0 1 .81.07c.42.43.35.52-1.5 2.82l-.78 1c-1 1.31-1.16 1.45-3.2 2.27l-1.08.43a12.3 12.3 0 0 0-3 1.51 8.21 8.21 0 0 0-1.88 1.59 8.61 8.61 0 0 1-1.33 1.21 20.86 20.86 0 0 0-3.22 2.61c-.51.7-1.78 2-1.83 2.08a.72.72 0 0 1-.25.16 13.88 13.88 0 0 1-3.42.22ZM199.14 150.21A.6.6 0 0 1 199 149a12.4 12.4 0 0 0 1.49-.62 3 3 0 0 1 2.19-.48 1.7 1.7 0 0 1 .68.52c.29.33.63.71 2.48.15a9.16 9.16 0 0 0 3.18-2 10.24 10.24 0 0 1 4.83-2.7l.6-.12c3.11-.6 3.67-.71 5-2a34.86 34.86 0 0 0 3.29-4.41c1.37-2 2.92-4.27 4.42-6a59.56 59.56 0 0 0 6.06-8.41 2.63 2.63 0 0 0 .24-2 4 4 0 0 1 .7-3.32 6.19 6.19 0 0 1 1.32-1.45c.23-.17.27-.2.54-1.9.08-.53.17-1 .25-1.43.38-2 .51-2.72-.92-4a10.57 10.57 0 0 1-2.34-3.44 22.35 22.35 0 0 0-2.44-4l-1.49-1.88c-2.61-3.25-5.57-6.94-5.73-10a18.13 18.13 0 0 1 .52-5.84.6.6 0 0 1 1.15.37 17.54 17.54 0 0 0-.46 5.41c.14 2.68 3.09 6.36 5.47 9.32.53.66 1 1.3 1.5 1.9a23 23 0 0 1 2.56 4.23 9.56 9.56 0 0 0 2.08 3.09c1.92 1.75 1.68 3 1.29 5.14-.08.41-.17.87-.25 1.39-.3 1.9-.38 2.2-1 2.67a4.72 4.72 0 0 0-1.08 1.19 2.79 2.79 0 0 0-.49 2.44 3.75 3.75 0 0 1-.4 2.77 59.46 59.46 0 0 1-6.17 8.59c-1.47 1.74-3 4-4.35 5.95a32.85 32.85 0 0 1-3.47 4.62c-1.62 1.5-2.47 1.67-5.63 2.28L214 145a9 9 0 0 0-4.28 2.44 10.14 10.14 0 0 1-3.61 2.27c-2.4.74-3.17.16-3.75-.5l-.18-.18c-.19-.07-.81.23-1.27.44a13.68 13.68 0 0 1-1.63.67Z"/><path d="M181.88 151.6a3.65 3.65 0 0 1-2.48-.87 2.59 2.59 0 0 1-.69-2.09 10.09 10.09 0 0 1 1.45-4.53.6.6 0 0 1 1 .68 9.06 9.06 0 0 0-1.24 3.94 1.35 1.35 0 0 0 .34 1.14 2.59 2.59 0 0 0 1.72.52.61.61 0 1 1 .09 1.21ZM163.48 90.47c-.52 0-.85-.24-1.7-4-.94-4.16-3.34-16.95-2.07-21 1.2-3.86 5.89-10 9.48-12.37a33.27 33.27 0 0 1 12.73-5.35l2-.45c6.19-1.43 14.67-3.38 18.5-1 4.3 2.67 7.83 7.51 9.16 9.33.47.65 1.05 1.31 1.67 2 1.49 1.68 3 3.43 3.09 5.24a8.69 8.69 0 0 1-.23 2.15c-.16.8-.15.85.21 1.1.92.62.92.62 1.95-.27l.24-.21c1.24-1.06 2.41-2.07 4.21-2.2 2-.14 4.32 2 4.62 4.32.23 1.82.32 4.47-1.64 6.44a14 14 0 0 1-1.58 1.34c-.64.47-.75.55-.75 1.1V78a.61.61 0 0 1-1.21 0v-1.4a2.29 2.29 0 0 1 1.24-2.08 11.56 11.56 0 0 0 1.44-1.22c1.57-1.57 1.52-3.72 1.3-5.42s-2-3.36-3.33-3.27-2.38.94-3.51 1.91l-.24.21c-1.46 1.26-2 1.31-3.42.34a1.89 1.89 0 0 1-.71-2.34 7.49 7.49 0 0 0 .2-1.87c0-1.37-1.44-2.94-2.79-4.47-.6-.69-1.23-1.4-1.74-2.1-1.29-1.77-4.72-6.46-8.82-9-3.4-2.12-11.94-.15-17.59 1.15l-2 .45a31.72 31.72 0 0 0-12.33 5.18c-3.34 2.22-7.88 8.14-9 11.72s.93 15.28 2.09 20.41a25.64 25.64 0 0 0 .75 2.82.63.63 0 0 1 .58.42.61.61 0 0 1-.1.56.71.71 0 0 1-.7.47ZM215.33 101.42h-.12a.62.62 0 0 1-.48-.72s.38-1.87.87-3.76a2.86 2.86 0 0 1 1.78-2.32 10.67 10.67 0 0 0 1.21-.71c1.39-1 1.39-1 1.18-3v-.34a13.53 13.53 0 0 0-.27-1.59 4.28 4.28 0 0 1 .58-3.64c.69-1.32 1.38-2.69 1.88-3.68s.65-1.29.72-1.39a.6.6 0 0 1 1 .66l-.65 1.27c-.5 1-1.19 2.37-1.89 3.7a3.19 3.19 0 0 0-.47 2.82 12.49 12.49 0 0 1 .29 1.73v.34c.23 2.28.21 2.81-1.7 4.13a13.13 13.13 0 0 1-1.33.79c-.73.39-.9.48-1.18 1.56a72.15 72.15 0 0 0-.85 3.69.61.61 0 0 1-.57.46ZM209.7 107.23a.62.62 0 0 1-.54-.34.6.6 0 0 1 .27-.81s.7-.41.95-2.76l.12-1.22a10.66 10.66 0 0 1 1-4.24c.39-.8.88-1.24 1.46-1.3a1.6 1.6 0 0 1 1.34.65.6.6 0 1 1-1 .73c-.07-.08-.2-.19-.26-.17s-.2 0-.49.62a9.61 9.61 0 0 0-.86 3.82c0 .38-.07.79-.12 1.24-.3 2.77-1.23 3.52-1.62 3.71a.52.52 0 0 1-.25.07ZM188.79 120.13a.6.6 0 0 1-.6-.61v-2.44a4.77 4.77 0 0 1 3.4-4.12 21.44 21.44 0 0 1 5.35-.75l1.15-.08c.28 0 .33 0 .6-.85a9.3 9.3 0 0 1 1-2.18 2.63 2.63 0 0 1 2.7-1.34 5.29 5.29 0 0 0 2.52-.47 1.77 1.77 0 0 0 1.11-1.08 2.71 2.71 0 0 0-.44-1.87.6.6 0 0 1 .15-.84.59.59 0 0 1 .84.15 3.83 3.83 0 0 1 .61 2.89 2.91 2.91 0 0 1-1.78 1.86 6.45 6.45 0 0 1-3 .57c-.83 0-1.14 0-1.67.79a7.83 7.83 0 0 0-.88 1.91c-.26.77-.53 1.56-1.63 1.67-.3 0-.71 0-1.2.08a21 21 0 0 0-5 .68 3.62 3.62 0 0 0-2.59 3v2.44a.61.61 0 0 1-.64.59ZM168.79 117a1.39 1.39 0 0 1-1.24-.62 5.71 5.71 0 0 1-.27-3.14.62.62 0 0 1 .7-.51.6.6 0 0 1 .5.69 4.72 4.72 0 0 0 .1 2.32s.09 0 .27 0a2.24 2.24 0 0 0 1.66-1.08c.38-.8.15-1.56-.94-3-.7-.93-2.64-.9-3.32-.81a.6.6 0 0 1-.68-.52.61.61 0 0 1 .52-.68c.13 0 3.18-.39 4.45 1.27 1 1.27 1.83 2.63 1.07 4.24a3.45 3.45 0 0 1-2.7 1.77ZM179.86 105.58a.57.57 0 0 1-.25-.06c-.15-.07-1.45-.7-1.58-1.81a1.94 1.94 0 0 1 .91-1.78 9.94 9.94 0 0 1 1.76-1.16c.55-.31.68-.38.86-.89a8.35 8.35 0 0 0 .23-.83 4.4 4.4 0 0 1 1.21-2.29 9.25 9.25 0 0 0 1.6-2.57l.08-.19a.61.61 0 0 1 1.09.54.64.64 0 0 0-.06.14 10.68 10.68 0 0 1-1.81 2.89 3.19 3.19 0 0 0-.95 1.77c-.07.26-.14.56-.27.94a2.45 2.45 0 0 1-1.42 1.55 9.06 9.06 0 0 0-1.59 1c-.18.14-.49.43-.46.68s.55.7.89.86a.61.61 0 0 1 .29.81.6.6 0 0 1-.53.4Z"/><path d="M183 103.8h-.08a.62.62 0 0 1-.52-.69 12.25 12.25 0 0 0-.29-4.63.61.61 0 1 1 1.16-.35 13.52 13.52 0 0 1 .33 5.15.6.6 0 0 1-.6.52ZM162.68 119.9a.61.61 0 0 1-.51-.28c-.1-.16-.46-.63-.87-1.18l-.9-1.18c-.76-1-.48-2.71-.25-4.07.07-.42.14-.82.16-1.1s0-.63 0-1a9.14 9.14 0 0 1 .34-3.32 35.44 35.44 0 0 1 2.88-6l.71-1.32a7.21 7.21 0 0 0 .57-4.7 2.57 2.57 0 0 1 0-.27.61.61 0 0 1 1.21 0 .58.58 0 0 0 0 .1 8.49 8.49 0 0 1-.7 5.48l-.72 1.32a35.23 35.23 0 0 0-2.78 5.78 8 8 0 0 0-.29 2.93v1.09c0 .37-.09.76-.17 1.24-.18 1.07-.43 2.53 0 3.13l.89 1.18c.52.68.81 1.07.93 1.26a.61.61 0 0 1-.18.84.63.63 0 0 1-.32.07ZM166 95.49ZM176.6 126.87a10.3 10.3 0 0 1-2.49-.41l-.44-.11a3.54 3.54 0 0 1-1.72-.82 3.24 3.24 0 0 0-1.26-.66 9.58 9.58 0 0 0-1.25-.35 5.22 5.22 0 0 1-1.65-.67c-1.1-.57-1.28-1-1.46-1.54a2.76 2.76 0 0 0-.63-1.12 6.19 6.19 0 0 1-1.28-2.42 2.8 2.8 0 0 0-.11-.32.59.59 0 0 1 0-.84.63.63 0 0 1 .87 0 1.63 1.63 0 0 1 .39.8 5 5 0 0 0 1 2 4 4 0 0 1 .86 1.54c.1.32.13.44.85.82a4.11 4.11 0 0 0 1.34.55 12.24 12.24 0 0 1 1.39.39 4.29 4.29 0 0 1 1.66.89 2.39 2.39 0 0 0 1.22.56l.45.11a6.33 6.33 0 0 0 3.33.25c1.18-.23 1.49-.32 2.26-.52l.76-.2a4.09 4.09 0 0 1 2.6 0 .62.62 0 0 1 .29.81.61.61 0 0 1-.81.29 2.91 2.91 0 0 0-1.77 0l-.76.2c-.77.2-1.12.3-2.33.54a7.23 7.23 0 0 1-1.31.23Z"/><path d="M175.14 126.67a.58.58 0 0 1-.57-.6c0-.19.11-1.94 3.3-3.83q1.32-.78 2.37-1.44a16.77 16.77 0 0 1 4-2.09.61.61 0 0 1 .74.44.61.61 0 0 1-.44.73 17.23 17.23 0 0 0-3.64 2c-.7.44-1.49.93-2.38 1.45-2.58 1.53-2.71 2.81-2.71 2.82a.62.62 0 0 1-.67.52Z"/><path d="M173.81 126.36a.61.61 0 0 1-.6-.5 1.24 1.24 0 0 1 .21-.8 1.26 1.26 0 0 0 0-1.48l-.85-1.35a.59.59 0 0 1 .19-.83.6.6 0 0 1 .83.18l.85 1.35a2.47 2.47 0 0 1 .06 2.68l-.08.16a.62.62 0 0 1-.51.59Zm.6-.7ZM165.55 119.89a.62.62 0 0 1-.32-.09.6.6 0 0 1-.2-.82 2.88 2.88 0 0 1 3.23-1 .61.61 0 0 1 .46.73.62.62 0 0 1-.73.46c-1.41-.32-1.91.39-1.93.42a.6.6 0 0 1-.51.3ZM179.31 137c.1-.4 1.35 0 2-.51s1.26-1.47 1.55-.61a3.44 3.44 0 0 1-.21 2.63 2.22 2.22 0 0 1-1.83.3c-.65-.27-1.75-.81-1.51-1.81ZM202.55 126.92s-1.77.25-1.65-1.16.73-3.3 1.65-2.63a5 5 0 0 1 2.08 2.63c.12.92-.19 1.24-2.08 1.16ZM193.36 101.36a4.29 4.29 0 0 0-1.51-1.28c-.92-.43-2.08-.43-2.69-1.35a3.4 3.4 0 0 1 1.16-4.46 4 4 0 0 1 4.4-.37c1.29.62 1.71.86 1.47 2s0 1.1-.93 2a5.93 5.93 0 0 0-1.33 2.14ZM166.54 95.19s-4.64-1.28-4.22-4.22 3.42-2.33 4.83-1.1 2.08 2.63 1.89 2.93-1.34-.36-1.89.07-.61 2.32-.61 2.32ZM165.68 123.83s-.12-3-1.89-2.41-1.9.79-2.36 1.89a3.29 3.29 0 0 0 0 2.77c.34.6.34 1.13 2.36.86s2 0 3.05-.86a4 4 0 0 0 1.29-1.9l-.61-1.19s-1.71 1.71-1.84.84ZM185.8 122.16c-.31-.06-1.84.71-1.47 1.42s.12 1.38 1.47 1 1.89-2.05 0-2.42ZM165.38 57.94a.6.6 0 0 1-.55-.36 9.65 9.65 0 0 0-3.09-3.74c-2.12-1.29-2.85-2.46-2.67-4.29.16-1.68 3.25-6 5.71-6.32 3.29-.43 5.41-.21 6.47.69.14.11 3.86 3.07 4.73 6.21a.6.6 0 0 1-1.16.32c-.77-2.76-4.3-5.57-4.33-5.59-.45-.38-1.76-.92-5.56-.43-1.77.23-4.54 4-4.65 5.24s.18 2 2.09 3.14a10.54 10.54 0 0 1 3.56 4.28.6.6 0 0 1-.3.8.74.74 0 0 1-.25.05Z"/><path d="M172.86 52.1a.61.61 0 0 1-.59-.46 8.6 8.6 0 0 0-2.15-3.48c-1.51-1.47-2.2-1.27-4.85-.19a2.77 2.77 0 0 0-2 2.72 1.15 1.15 0 0 1 0 .39.61.61 0 0 1-.76.39.62.62 0 0 1-.4-.72.57.57 0 0 1 0-.12 3.94 3.94 0 0 1 2.78-3.78c2.79-1.14 4.1-1.55 6.15.44a9.54 9.54 0 0 1 2.48 4.05.6.6 0 0 1-.43.74ZM162 50.7Z"/><path d="M170.52 53.48a.63.63 0 0 1-.51-.27c-.51-.77-2.8-.88-4.26-.71a.6.6 0 1 1-.14-1.2c.44 0 4.29-.44 5.41 1.24a.61.61 0 0 1-.5.94ZM217.22 69.65a7.3 7.3 0 0 1 3.12-3.12 8.77 8.77 0 0 1 3.16-.69c.33-.14 1.43.6.23 1.06a9.86 9.86 0 0 0-3 1.46 14.22 14.22 0 0 0-1.73 2.16c-.4.36-2 .04-1.78-.87ZM220.11 73.45l1-2.06c.78-1.61 1.24-2.94 1.83-3.14s.74 0 .46 1.44-.18 2.48-1.19 3.4-2.1 1.65-2.1.36ZM190.94 116.81s-2.57.1-1.77-1.71 1.65-2.18 3.65-2.34 2.23.51 2.17.53a8.52 8.52 0 0 1-4.05 3.52ZM203.67 108.3a2.53 2.53 0 0 0 1-2.11c-.08-1.34 0-2 .53-2.2a1.87 1.87 0 0 1 1.51 2.63 3.2 3.2 0 0 1-3.04 1.68ZM195.8 121.91s-.35.9 1 .3 1.22-.84 1.77-1.08 1.62.06 1.12 1.29-.88.85-1.12 2.56a3.51 3.51 0 0 0 .21 2.33s-3.55-.41-3.75-2a6.75 6.75 0 0 1 .77-3.4ZM160.91 144.65s4.46.68 6.48-.79a10.06 10.06 0 0 1 3.24-1.78c.49-.18 1.29.06 1.29.49a1.92 1.92 0 0 0 2 1.88 8.16 8.16 0 0 1 2.88.36 18 18 0 0 1-4.22 1.25c-2.32.36-2.71-.25-3.86 0a12.06 12.06 0 0 1-3 .12c-1.34 0-2.26.67-3.18 0a3.41 3.41 0 0 0-2.32-.89c-.96.03.69-.64.69-.64ZM180.66 150.52s1.18 1.1.5 2-1.6 2-1.17 2.93a4.79 4.79 0 0 0 1.77 1.65s-.79-2 0-2.81 1.26-.85 1.27-1.77a5.09 5.09 0 0 0-.18-1.24 1.25 1.25 0 0 0-1.45-.93ZM185.11 149.51a.31.31 0 0 0-.51.26 16.17 16.17 0 0 1 0 2.34c-.15 1.71-.64 2-.7 3.06a7.92 7.92 0 0 0 0 2.87.31.31 0 0 0 .61-.08 5.26 5.26 0 0 1 .72-2.79c1.1-1.78 1.34-2.63 1.77-3.3.33-.49-1.1-1.73-1.89-2.36ZM189.7 149.87a.28.28 0 0 0-.45.26 2.81 2.81 0 0 1-.21 1.44c-.49 1.15-1.56 3.11-1 4.33a4 4 0 0 0 1.69 1.56.29.29 0 0 0 .4-.37c-.45-1.05-1.15-3-.58-3.88.79-1.28 1-2.93.61-3.06a2 2 0 0 1-.46-.28ZM192.62 150.84a.42.42 0 0 0-.59.38v1.62c0 1.23-.24 3.79 1 4.28s1.39 0 1.39 0-2.06-1.59-1.76-3a10.75 10.75 0 0 1 1.29-2.56 7.28 7.28 0 0 0-1.33-.72ZM197.1 149.45a.61.61 0 0 0-.68.43c-.16.52-.46 1.33-.7 2.11-.37 1.16-.49 1.83 0 2.63a3.32 3.32 0 0 0 1.34 1.16 5.12 5.12 0 0 1 .66-5.28.61.61 0 0 0-.36-1ZM89.21 164.19s-.1-.15-1 1.65-1.13 2.78-1.89 3.29-.46 1 .4.62A10.88 10.88 0 0 0 90 167c.16-.47-.79-2.81-.79-2.81ZM91.8 168.77a4.81 4.81 0 0 1 0 2.74c-.49 1-2.35 1.69-2.82 1.89s-1.22.86-.62 1a2.68 2.68 0 0 0 1.72-.16 21 21 0 0 0 3.35-2c.75-.53 2.13-1.25 2.4-1.78s.53-.78.35-.89-1.93-.78-1.93-.78ZM96.58 170.31s.58.33-.15 1.73a7.58 7.58 0 0 1-2.34 2.6c-.78.65-1.24 1.27-1.53 1.49s-.69.51.27.33.86.25 2.24-.71 2.18-1.11 2.89-2 .79-1.2.74-1.49a14.89 14.89 0 0 0-2.12-1.95ZM100.93 172.29a3.91 3.91 0 0 1-1 2.16 13.17 13.17 0 0 1-1.85 2.07c-.35.19-.71.79-.33.7a4.16 4.16 0 0 0 1.51-.7 13.75 13.75 0 0 0 2.58-2.07c.87-.9.87-1.39 1.67-1.81s1.8-.93 1.88-1.22-.77-.53-1.22-.6a5.76 5.76 0 0 0-1.85.72ZM105.92 170.48a6.73 6.73 0 0 1-.16 1.58c-.18.67.11 1-.53 2s-1.11 1.24-1.33 1.67a1.22 1.22 0 0 0-.12.83 2.05 2.05 0 0 0 1.06-.37 9.89 9.89 0 0 0 2.43-2.35 9.06 9.06 0 0 0 1.78-2.63c.53-1.24.74-1.8.74-1.8l-.16-.37a9.87 9.87 0 0 1-2.13 1.13 8.7 8.7 0 0 1-1.58.31ZM102.54 142.57a.89.89 0 0 1 0-1.48c.92-.77 2.11-.46 3.07-.37s1.93-.09 2.52.55a3.08 3.08 0 0 1 1 1.84c.09.73.46 1 0 1s-.64 0-1.1-.64-.65-1.19-1.49-1.29-.3.74-1 .92a6.57 6.57 0 0 1-2.29.46c-.53-.18-.71-.99-.71-.99ZM104.25 135.86a7.92 7.92 0 0 1 2.24 0 6.13 6.13 0 0 1 2.66 1.37 2.79 2.79 0 0 1 .54 2.2c-.13.19-.77-.27-1.32-.92a2.59 2.59 0 0 0-1.73-1.1 5.93 5.93 0 0 0-1.77.26 1 1 0 0 1-.62-1.81ZM104.14 131.69s2.43-.46 3.44 0a4.23 4.23 0 0 1 2.2 1.83 2.1 2.1 0 0 1 0 1.57c0 .13-.69 0-1.37-.83s-1.29-1.44-1.86-1.1a7.23 7.23 0 0 1-1.33.53 1.11 1.11 0 0 1-1-.2c-.55-.42-1.14-1.16-.08-1.8ZM73.88 125.23c.23-.14 0-1.47 1.92-2.12a7.68 7.68 0 0 1 2.71-.68c1.47-.19 2.52.13 1.88.32a9.56 9.56 0 0 0-2.06 1c-.78.46-1.23.55-1.1 1.06a1.8 1.8 0 0 1 0 .91ZM233.51 120.16a4.52 4.52 0 0 1-.58-2.78c.13-1.12 0-1.48 1.16-1.39a4 4 0 0 0 1.39 0 39.37 39.37 0 0 0 0-4.69c-.18-1.17-.56-2.33.08-2.42a1.57 1.57 0 0 1 1.85.67c.67.9.67 1.52.44 3a26.14 26.14 0 0 0-.09 4 5.18 5.18 0 0 0-.94 1.79 9.32 9.32 0 0 1-.44 1.89 1.22 1.22 0 0 1-.93.58ZM134.46 87.72a.63.63 0 0 1-.19 0 .6.6 0 0 1-.39-.76 41.61 41.61 0 0 1 3.12-7.08 25.35 25.35 0 0 1 11.12-9.77 24.62 24.62 0 0 0 8.88-5.76l.46-.41c1.6-1.46 2.81-2.09 3.7-1.93a1.17 1.17 0 0 1 .83.56.61.61 0 0 1-.26.81.62.62 0 0 1-.77-.17c-.1 0-.82-.08-2.69 1.62l-.45.41a25.7 25.7 0 0 1-9.3 6A24.13 24.13 0 0 0 138 80.5a41 41 0 0 0-3 6.8.6.6 0 0 1-.54.42Zm26.47-24.6Zm0 0ZM163 116.43s-.87-1.21-.52-1.66a1 1 0 0 1 1.33-.23c.35.28 1 .72.5 1.26s-.98 1.13-1.31.63ZM164.52 114.37c-.16-.46-.88-1.08-.43-1.33s.84-.54 1.13 0 .3.94 0 1.14-.56.6-.7.19ZM169.53 124.18a1.83 1.83 0 0 1 0 1.9c-.61 1-.42 1.33.53 1.21s1.27.15 1.23-1a5.85 5.85 0 0 0-.41-2ZM186 126.55c-.48.27-.37.55 0 2.14s-.37 2.39.49 2.75 1.85-3.76 1.16-4.27-.85-1.03-1.65-.62ZM42.31 198.15a9.15 9.15 0 0 1 9.46-9.38 9.33 9.33 0 0 1 6.79 2.6 9.81 9.81 0 0 1 0 13.52 9.35 9.35 0 0 1-6.79 2.65 9.33 9.33 0 0 1-6.78-2.6 9 9 0 0 1-2.68-6.79Zm3.38 0a6.37 6.37 0 0 0 1.74 4.58 5.77 5.77 0 0 0 4.34 1.82 5.7 5.7 0 0 0 4.45-1.82 6.53 6.53 0 0 0 1.66-4.58 6.33 6.33 0 0 0-1.77-4.6 6.19 6.19 0 0 0-8.71 0 6.4 6.4 0 0 0-1.71 4.6ZM68.15 200.44v6.81H65v-18.2h5.54q6.6 0 6.61 5.62a5.38 5.38 0 0 1-1.15 3.38 5.56 5.56 0 0 1-2.44 1.77l5.69 7.43H75.4l-5-6.81Zm2.19-8.44h-2.23v5.41h2.08a4 4 0 0 0 2.51-.75 2.48 2.48 0 0 0 1-2.06q.02-2.6-3.36-2.6ZM85.26 200.67v6.58h-3.2v-18.2h5.18a10.46 10.46 0 0 1 3.34.48 5.13 5.13 0 0 1 2.19 1.33 5.62 5.62 0 0 1 1.15 1.84 6.47 6.47 0 0 1 .36 2.2 5.62 5.62 0 0 1-1.77 4.1 6.68 6.68 0 0 1-4.89 1.71 23.2 23.2 0 0 1-2.36-.04Zm2.29-8.67h-2.29v5.59c.92.09 1.67.13 2.26.13A3.8 3.8 0 0 0 90 197a2.67 2.67 0 0 0 .92-2.19c-.02-1.87-1.14-2.81-3.37-2.81ZM112.66 207.25h-3.17v-7.77h-8.32v7.77H98v-18.2h3.2v7.44h8.32v-7.44h3.17ZM118.59 207.25h-3.22l7.69-18.25h2.81l7.7 18.25h-3.41l-1.9-4.65h-7.77Zm8.45-7.64-2.65-6.48-2.68 6.48ZM151.84 189.05v18.2h-2.54l-10-12.61v12.61h-3v-18.2h2.54l10 12.66v-12.66ZM162.4 207.23V189.1c1.87-.08 3.62-.13 5.25-.13a7.07 7.07 0 0 1 4.5 1.2 4 4 0 0 1 1.48 3.3 4.22 4.22 0 0 1-2.6 4.14 4.26 4.26 0 0 1 2.34 1.47 4.32 4.32 0 0 1 .86 2.77 4.81 4.81 0 0 1-1.82 4 7.86 7.86 0 0 1-4.94 1.41c-2.08.1-3.77.05-5.07-.03Zm5.2-15.23c-.76 0-1.43 0-2 .08v4.6h2.16a2.93 2.93 0 0 0 2-.62 2.22 2.22 0 0 0 .74-1.79 2 2 0 0 0-.75-1.68 3.39 3.39 0 0 0-2.15-.59Zm.26 7.47h-2.26v4.81c.81.08 1.51.13 2.1.13 2.22 0 3.33-.88 3.33-2.63a2 2 0 0 0-.83-1.73 4 4 0 0 0-2.34-.62ZM189.23 207.25h-10.79v-18.2H189v3h-7.33v4.53h6.55v3h-6.55v4.7h7.59ZM194.28 207.25h-3.23l7.7-18.25h2.81l7.69 18.25h-3.4L204 202.6h-7.78Zm8.45-7.64-2.66-6.48-2.67 6.48ZM215.18 200.44v6.81H212v-18.2h5.54q6.6 0 6.6 5.62a5.38 5.38 0 0 1-1.06 3.43 5.53 5.53 0 0 1-2.45 1.77l5.7 7.43h-3.88l-5-6.81Zm2.18-8.45h-2.17v5.41h2.08a4 4 0 0 0 2.51-.75 2.47 2.47 0 0 0 1-2.06c-.04-1.72-1.16-2.59-3.42-2.59ZM40.53 231.64v6.81h-3.2v-18.2h5.54q6.6 0 6.6 5.62A5.25 5.25 0 0 1 46 231l5.69 7.43h-3.91l-5-6.81Zm2.18-8.45H40.49v5.41h2.08a4 4 0 0 0 2.5-.75 2.45 2.45 0 0 0 1-2.06q.02-2.6-3.36-2.6ZM65.23 238.45H54.44v-18.2H65v3h-7.37v4.53h6.56v3h-6.56v4.7h7.6ZM76.69 233.62a2 2 0 0 0-.61-1.47 4.66 4.66 0 0 0-1.52-1 53.4 53.4 0 0 1-2-.94 19.58 19.58 0 0 1-2-1.12 4.93 4.93 0 0 1-.6-7.63 5.89 5.89 0 0 1 4.16-1.46 6.62 6.62 0 0 1 5.2 1.95l-1.72 2.39a4.46 4.46 0 0 0-3.22-1.34 2.94 2.94 0 0 0-1.86.54 1.77 1.77 0 0 0-.69 1.46 2.12 2.12 0 0 0 .18.87 2.88 2.88 0 0 0 .4.66 3 3 0 0 0 .73.57 10.7 10.7 0 0 0 1.81.91l1 .45a13.71 13.71 0 0 1 2 1.09 4.23 4.23 0 0 1 1.55 1.64 5 5 0 0 1 .58 2.44 4.58 4.58 0 0 1-1.74 3.72 6.63 6.63 0 0 1-4.34 1.39 9.15 9.15 0 0 1-3.62-.76 4.52 4.52 0 0 1-2.34-2.1l1.82-2.19a4.94 4.94 0 0 0 1.89 1.51 5.28 5.28 0 0 0 2.3.55 3 3 0 0 0 1.92-.57 1.88 1.88 0 0 0 .72-1.56ZM96.4 234.29l1.22 2.39a6.1 6.1 0 0 1-2.46 1.49 9.88 9.88 0 0 1-3.36.57 9.27 9.27 0 0 1-6.8-2.58 9.15 9.15 0 0 1-2.6-6.81 9.57 9.57 0 0 1 2.47-6.73 8.83 8.83 0 0 1 6.85-2.62 8 8 0 0 1 5.54 1.84l-1.43 2.37a7.24 7.24 0 0 0-4.11-1.21 5.64 5.64 0 0 0-4.26 1.74 6.45 6.45 0 0 0-1.67 4.65 6.32 6.32 0 0 0 1.74 4.61 6.16 6.16 0 0 0 4.55 1.77 7 7 0 0 0 4.32-1.48ZM112.34 220.25h3.17v10.66c0 2.62-.69 4.58-2.05 5.88a7.3 7.3 0 0 1-5.18 2 7.78 7.78 0 0 1-5.64-2.06 7.94 7.94 0 0 1-2.11-6v-10.48h3.2v9.8a6.71 6.71 0 0 0 1.16 4.2 4 4 0 0 0 3.39 1.5q4.06 0 4.06-5.49ZM131.11 238.45h-10.79v-18.2h10.53v3h-7.33v4.53h6.55v3h-6.55v4.7h7.59ZM153.42 234.29l1.22 2.39a6.1 6.1 0 0 1-2.46 1.49 9.92 9.92 0 0 1-3.36.57 9.27 9.27 0 0 1-6.79-2.58 9.15 9.15 0 0 1-2.6-6.81 9.52 9.52 0 0 1 2.47-6.73 8.83 8.83 0 0 1 6.84-2.65 8 8 0 0 1 5.54 1.84l-1.43 2.37a7.26 7.26 0 0 0-4.11-1.22 5.64 5.64 0 0 0-4.27 1.74 6.44 6.44 0 0 0-1.66 4.65 6.32 6.32 0 0 0 1.74 4.63 6.16 6.16 0 0 0 4.55 1.77 7 7 0 0 0 4.32-1.46ZM168.6 238.45h-10.79v-18.2h10.53v3H161v4.53h6.55v3H161v4.7h7.59ZM188.31 220.25v18.2h-2.55l-10-12.61v12.61h-3v-18.2h2.55l10 12.66v-12.66ZM197 223.24h-5.9v-3h15v3h-5.9v15.21H197ZM212.07 231.64v6.81h-3.2v-18.2h5.54q6.61 0 6.61 5.62a5.38 5.38 0 0 1-1.07 3.43 5.48 5.48 0 0 1-2.44 1.77l5.69 7.43h-3.87l-5-6.81Zm2.19-8.45h-2.23v5.41h2.08a4 4 0 0 0 2.51-.75 2.48 2.48 0 0 0 1-2.06q.02-2.6-3.36-2.6ZM236.77 238.45H226v-18.2h10.53v3h-7.33v4.53h6.55v3h-6.55v4.7h7.59Z"/></g></g></svg>